<mxfile host="app.diagrams.net" agent="Mozilla/5.0 (Windows NT 10.0; Win64; x64) AppleWebKit/537.36 (KHTML, like Gecko) Chrome/136.0.0.0 Safari/537.36 Edg/136.0.0.0" version="27.0.6">
  <diagram name="Page-1" id="HU33eohN_FLtxlU3l2_U">
    <mxGraphModel dx="810" dy="449" grid="1" gridSize="10" guides="1" tooltips="1" connect="1" arrows="1" fold="1" page="1" pageScale="1" pageWidth="827" pageHeight="1169" math="0" shadow="0">
      <root>
        <mxCell id="0" />
        <mxCell id="1" parent="0" />
        <mxCell id="fWjHjsMDt9NaWRgxFrk5-1" value="Start menu" style="rounded=0;whiteSpace=wrap;html=1;" vertex="1" parent="1">
          <mxGeometry x="354" y="180" width="120" height="60" as="geometry" />
        </mxCell>
        <mxCell id="fWjHjsMDt9NaWRgxFrk5-12" style="edgeStyle=orthogonalEdgeStyle;rounded=0;orthogonalLoop=1;jettySize=auto;html=1;entryX=1;entryY=0.5;entryDx=0;entryDy=0;" edge="1" parent="1" source="fWjHjsMDt9NaWRgxFrk5-2" target="fWjHjsMDt9NaWRgxFrk5-11">
          <mxGeometry relative="1" as="geometry" />
        </mxCell>
        <mxCell id="fWjHjsMDt9NaWRgxFrk5-25" style="edgeStyle=orthogonalEdgeStyle;rounded=0;orthogonalLoop=1;jettySize=auto;html=1;entryX=1;entryY=0.5;entryDx=0;entryDy=0;" edge="1" parent="1" source="fWjHjsMDt9NaWRgxFrk5-2" target="fWjHjsMDt9NaWRgxFrk5-8">
          <mxGeometry relative="1" as="geometry" />
        </mxCell>
        <mxCell id="fWjHjsMDt9NaWRgxFrk5-2" value="Playing" style="rounded=0;whiteSpace=wrap;html=1;" vertex="1" parent="1">
          <mxGeometry x="354" y="320" width="120" height="60" as="geometry" />
        </mxCell>
        <mxCell id="fWjHjsMDt9NaWRgxFrk5-3" value="" style="endArrow=classic;html=1;rounded=0;exitX=0.5;exitY=1;exitDx=0;exitDy=0;" edge="1" parent="1" source="fWjHjsMDt9NaWRgxFrk5-1" target="fWjHjsMDt9NaWRgxFrk5-2">
          <mxGeometry width="50" height="50" relative="1" as="geometry">
            <mxPoint x="400" y="370" as="sourcePoint" />
            <mxPoint x="450" y="320" as="targetPoint" />
          </mxGeometry>
        </mxCell>
        <mxCell id="fWjHjsMDt9NaWRgxFrk5-4" value="Play button" style="text;html=1;align=center;verticalAlign=middle;whiteSpace=wrap;rounded=0;" vertex="1" parent="1">
          <mxGeometry x="410" y="260" width="60" height="30" as="geometry" />
        </mxCell>
        <mxCell id="fWjHjsMDt9NaWRgxFrk5-5" value="" style="endArrow=classic;html=1;rounded=0;exitX=1;exitY=0.5;exitDx=0;exitDy=0;entryX=0;entryY=0.5;entryDx=0;entryDy=0;" edge="1" parent="1" source="fWjHjsMDt9NaWRgxFrk5-1" target="fWjHjsMDt9NaWRgxFrk5-6">
          <mxGeometry width="50" height="50" relative="1" as="geometry">
            <mxPoint x="560" y="230" as="sourcePoint" />
            <mxPoint x="520" y="210" as="targetPoint" />
          </mxGeometry>
        </mxCell>
        <mxCell id="fWjHjsMDt9NaWRgxFrk5-6" value="End" style="ellipse;whiteSpace=wrap;html=1;aspect=fixed;" vertex="1" parent="1">
          <mxGeometry x="640" y="190" width="40" height="40" as="geometry" />
        </mxCell>
        <mxCell id="fWjHjsMDt9NaWRgxFrk5-7" value="Return to Desktop/Close" style="text;html=1;align=center;verticalAlign=middle;resizable=0;points=[];autosize=1;strokeColor=none;fillColor=none;" vertex="1" parent="1">
          <mxGeometry x="480" y="180" width="150" height="30" as="geometry" />
        </mxCell>
        <mxCell id="fWjHjsMDt9NaWRgxFrk5-22" style="edgeStyle=orthogonalEdgeStyle;rounded=0;orthogonalLoop=1;jettySize=auto;html=1;" edge="1" parent="1" source="fWjHjsMDt9NaWRgxFrk5-8" target="fWjHjsMDt9NaWRgxFrk5-19">
          <mxGeometry relative="1" as="geometry" />
        </mxCell>
        <mxCell id="fWjHjsMDt9NaWRgxFrk5-23" style="edgeStyle=orthogonalEdgeStyle;rounded=0;orthogonalLoop=1;jettySize=auto;html=1;entryX=1;entryY=0.5;entryDx=0;entryDy=0;" edge="1" parent="1" source="fWjHjsMDt9NaWRgxFrk5-8" target="fWjHjsMDt9NaWRgxFrk5-20">
          <mxGeometry relative="1" as="geometry">
            <Array as="points">
              <mxPoint x="250" y="190" />
            </Array>
          </mxGeometry>
        </mxCell>
        <mxCell id="fWjHjsMDt9NaWRgxFrk5-24" style="edgeStyle=orthogonalEdgeStyle;rounded=0;orthogonalLoop=1;jettySize=auto;html=1;entryX=1;entryY=0.5;entryDx=0;entryDy=0;" edge="1" parent="1" source="fWjHjsMDt9NaWRgxFrk5-8" target="fWjHjsMDt9NaWRgxFrk5-21">
          <mxGeometry relative="1" as="geometry" />
        </mxCell>
        <mxCell id="fWjHjsMDt9NaWRgxFrk5-8" value="Upgrades screen" style="rounded=0;whiteSpace=wrap;html=1;" vertex="1" parent="1">
          <mxGeometry x="190" y="240" width="120" height="60" as="geometry" />
        </mxCell>
        <mxCell id="fWjHjsMDt9NaWRgxFrk5-10" value="Upgrades" style="text;html=1;align=center;verticalAlign=middle;resizable=0;points=[];autosize=1;strokeColor=none;fillColor=none;" vertex="1" parent="1">
          <mxGeometry x="320" y="270" width="80" height="30" as="geometry" />
        </mxCell>
        <mxCell id="fWjHjsMDt9NaWRgxFrk5-11" value="File view" style="rounded=0;whiteSpace=wrap;html=1;" vertex="1" parent="1">
          <mxGeometry x="110" y="320" width="120" height="60" as="geometry" />
        </mxCell>
        <mxCell id="fWjHjsMDt9NaWRgxFrk5-13" value="Click on individual&#39;s&lt;div&gt;&amp;nbsp;computer&lt;/div&gt;" style="text;html=1;align=center;verticalAlign=middle;resizable=0;points=[];autosize=1;strokeColor=none;fillColor=none;" vertex="1" parent="1">
          <mxGeometry x="230" y="350" width="130" height="40" as="geometry" />
        </mxCell>
        <mxCell id="fWjHjsMDt9NaWRgxFrk5-14" value="Win menu" style="rounded=0;whiteSpace=wrap;html=1;" vertex="1" parent="1">
          <mxGeometry x="354" y="450" width="120" height="60" as="geometry" />
        </mxCell>
        <mxCell id="fWjHjsMDt9NaWRgxFrk5-15" value="" style="endArrow=classic;html=1;rounded=0;exitX=0.5;exitY=1;exitDx=0;exitDy=0;entryX=0.5;entryY=0;entryDx=0;entryDy=0;" edge="1" parent="1" source="fWjHjsMDt9NaWRgxFrk5-2" target="fWjHjsMDt9NaWRgxFrk5-14">
          <mxGeometry width="50" height="50" relative="1" as="geometry">
            <mxPoint x="370" y="410" as="sourcePoint" />
            <mxPoint x="420" y="360" as="targetPoint" />
          </mxGeometry>
        </mxCell>
        <mxCell id="fWjHjsMDt9NaWRgxFrk5-16" value="Hacked final computer" style="text;html=1;align=center;verticalAlign=middle;whiteSpace=wrap;rounded=0;" vertex="1" parent="1">
          <mxGeometry x="414" y="400" width="60" height="30" as="geometry" />
        </mxCell>
        <mxCell id="fWjHjsMDt9NaWRgxFrk5-19" value="Abilities" style="rounded=0;whiteSpace=wrap;html=1;" vertex="1" parent="1">
          <mxGeometry x="10" y="240" width="120" height="60" as="geometry" />
        </mxCell>
        <mxCell id="fWjHjsMDt9NaWRgxFrk5-20" value="Transmission" style="rounded=0;whiteSpace=wrap;html=1;" vertex="1" parent="1">
          <mxGeometry x="50" y="160" width="120" height="60" as="geometry" />
        </mxCell>
        <mxCell id="fWjHjsMDt9NaWRgxFrk5-21" value="Anti-anti-malware" style="rounded=0;whiteSpace=wrap;html=1;" vertex="1" parent="1">
          <mxGeometry x="90" y="80" width="120" height="60" as="geometry" />
        </mxCell>
      </root>
    </mxGraphModel>
  </diagram>
</mxfile>
